<?xml version="1.0" standalone="no"?><!DOCTYPE svg PUBLIC "-//W3C//DTD SVG 1.1//EN" "http://www.w3.org/Graphics/SVG/1.1/DTD/svg11.dtd"><svg t="1725262909309" class="icon" viewBox="0 0 1024 1024" version="1.1" xmlns="http://www.w3.org/2000/svg" p-id="1558" xmlns:xlink="http://www.w3.org/1999/xlink" width="16" height="16"><path d="M512 512m-470.032787 0a470.032787 470.032787 0 1 0 940.065574 0 470.032787 470.032787 0 1 0-940.065574 0Z" fill="#81BAC4" p-id="1559"></path><path d="M512 1013.508197C235.465443 1013.508197 10.491803 788.534557 10.491803 512S235.465443 10.491803 512 10.491803 1013.508197 235.465443 1013.508197 512 788.534557 1013.508197 512 1013.508197z m0-940.065574C270.176525 73.442623 73.442623 270.176525 73.442623 512c0 241.819279 196.733902 438.557377 438.557377 438.557377 241.819279 0 438.557377-196.738098 438.557377-438.557377 0-241.823475-196.738098-438.557377-438.557377-438.557377z" fill="#81BAC4" p-id="1560"></path><path d="M514.622951 243.703607m-96.818361 0a96.818361 96.818361 0 1 0 193.636721 0 96.818361 96.818361 0 1 0-193.636721 0Z" fill="#FFFFFF" p-id="1561"></path><path d="M327.558295 676.360393m-118.578361 0a118.578361 118.578361 0 1 0 237.156722 0 118.578361 118.578361 0 1 0-237.156722 0Z" fill="#FFEBAD" p-id="1562"></path><path d="M814.37377 555.415082m-35.420327 0a35.420328 35.420328 0 1 0 70.840655 0 35.420328 35.420328 0 1 0-70.840655 0Z" opacity=".37" p-id="1563"></path><path d="M661.033967 805.728525m-66.119344 0a66.119344 66.119344 0 1 0 132.238688 0 66.119344 66.119344 0 1 0-132.238688 0Z" opacity=".48" p-id="1564"></path><path d="M231.251934 342.884721m-68.482098 0a68.482098 68.482098 0 1 0 136.964197 0 68.482098 68.482098 0 1 0-136.964197 0Z" opacity=".48" p-id="1565"></path></svg>